<svg width="96" height="96" viewBox="0 0 96 96" fill="none" xmlns="http://www.w3.org/2000/svg">
<path d="M49.5 85C50.5 81.5 54 81 55.5 80.5L54.0002 77C48.5001 79 46 82.5001 46 87C46 91 50.4724 92.5596 51.5 93C55 94.5 56.5 92.5 54.0002 91C49.0003 87.9998 48.9506 86.923 49.5 85Z" fill="black"/>
<path d="M47.1625 7.37253L44 5.11362V9V22C44 24.7933 45.6957 27.2871 47.5184 28.9696C48.7878 30.1413 50.3887 31.168 52 31.6712V77V79H54H57H59H61H64H65H66H67H75C77.7126 79 81.686 78.0884 85.0208 75.3444C88.4375 72.533 91 67.9465 91 61C91 55.1388 88.8985 49.1716 86.5617 46.2506C85.9876 45.5329 84.469 44.066 82.6961 42.4089C80.8621 40.6948 78.597 38.6326 76.3967 36.649C74.195 34.6641 72.0519 32.7522 70.4597 31.3368C70.1223 31.037 69.8097 30.7594 69.5264 30.508C70.3866 29.7131 71.5515 28.5696 72.1857 27.5763C73.4034 25.6693 74 23.4212 74 22V9V5.11362L70.8375 7.37253L64.3591 12H53.6409L47.1625 7.37253Z" stroke="black" stroke-width="4"/>
<path d="M55 86L92 86" stroke="black" stroke-width="4" stroke-linecap="round"/>
<path d="M4 86H40.5" stroke="black" stroke-width="4" stroke-linecap="round"/>
<path d="M16.6607 69.2143H22.5536V75.1071H16.6607V69.2143ZM22.5536 69.2143H28.4464L28.4464 75.1071H22.5536V69.2143ZM22.5536 75.1071H28.4464V81H22.5536V75.1071ZM16.6607 75.1071H22.5536V81H16.6607V75.1071ZM16.6607 57.4286H22.5536V63.3214H16.6607V57.4286ZM22.5536 57.4286H28.4464V63.3214H22.5536V57.4286ZM22.5536 51.5357H28.4464V57.4286H22.5536V51.5357ZM16.6607 51.5357H22.5536V57.4286H16.6607V51.5357ZM16.6607 45.6429H22.5536V51.5357H16.6607V45.6429ZM22.5536 45.6429H28.4464V51.5357H22.5536V45.6429ZM28.4464 45.6429H34.3393V51.5357H28.4464V45.6429ZM22.5536 39.75H28.4464V45.6429H22.5536V39.75ZM28.4464 39.75H34.3393V45.6429H28.4464V39.75ZM34.3393 39.75H40.2321V45.6429H34.3393V39.75ZM34.3393 33.8571H40.2321V39.75H34.3393V33.8571ZM28.4464 33.8571H34.3393V39.75H28.4464V33.8571ZM28.4464 27.9643H34.3393V33.8571H28.4464V27.9643ZM34.3393 27.9643H40.2321V33.8571H34.3393V27.9643ZM28.4464 22.0714H34.3393V27.9643H28.4464V22.0714ZM22.5536 22.0714H28.4464V27.9643H22.5536V22.0714ZM22.5536 27.9643H28.4464V33.8571H22.5536V27.9643ZM16.6607 27.9643H22.5536V33.8571H16.6607V27.9643ZM10.7679 27.9643H16.6607V33.8571H10.7679V27.9643ZM10.7679 22.0714H16.6607V27.9643H10.7679V22.0714ZM16.6607 22.0714H22.5536V27.9643H16.6607V22.0714ZM4.875 27.9643H10.7679V33.8571H4.875V27.9643ZM4.875 33.8571H10.7679V39.75H4.875L4.875 33.8571ZM10.7679 33.8571H16.6607V39.75H10.7679V33.8571Z" fill="black"/>
</svg>
